<svg width="352" height="328" viewBox="0 0 352 328" fill="none" xmlns="http://www.w3.org/2000/svg">
<path d="M217.116 22.253L201.033 70.5287L184.949 22.253C184.111 19.7073 183.886 16.9989 184.297 14.3501C184.708 11.7012 185.74 9.18754 187.31 7.01563C188.879 4.84356 190.942 3.075 193.328 1.85545C195.714 0.635909 198.354 0 201.033 0C203.711 0 206.351 0.635909 208.737 1.85545C211.123 3.075 213.186 4.84356 214.755 7.01563C216.325 9.18754 217.357 11.7012 217.768 14.3501C218.179 16.9989 217.954 19.7073 217.116 22.253ZM303.383 71.3333L257.885 94.1034L280.641 48.5794C282.748 44.7213 286.267 41.8311 290.459 40.5168C294.652 39.2026 299.19 39.5666 303.12 41.5326C307.05 43.4986 310.064 46.913 311.528 51.0576C312.994 55.202 312.794 59.7534 310.973 63.754C309.334 67.0385 306.669 69.6992 303.383 71.3333ZM329.693 167.08L281.445 150.988L329.693 134.896C332.242 134.047 334.955 133.816 337.609 134.222C340.264 134.628 342.785 135.659 344.962 137.23C347.142 138.802 348.915 140.868 350.138 143.26C351.363 145.652 352 148.301 352 150.988C352 153.676 351.363 156.325 350.138 158.717C348.915 161.107 347.142 163.175 344.962 164.746C342.785 166.318 340.264 167.348 337.609 167.754C334.955 168.161 332.242 167.929 329.693 167.08ZM121.424 48.5794L144.18 94.1034L98.6823 71.3333C96.2699 70.1357 94.1786 68.3806 92.5781 66.2135C90.9776 64.0464 89.9161 61.5294 89.4802 58.8705C89.046 56.2116 89.249 53.4872 90.0742 50.9224C90.8994 48.3578 92.3235 46.0264 94.2268 44.1212C96.1318 42.216 98.461 40.7917 101.025 39.9658C103.589 39.14 106.31 38.9366 108.967 39.3722C111.626 39.8077 114.142 40.8699 116.306 42.471C118.472 44.0719 120.227 46.1658 121.424 48.5794ZM269.802 172.584C272.037 165.76 273.404 158.567 273.404 150.988C273.404 111.064 240.934 78.5746 201.033 78.5746C179.482 78.5746 160.232 88.1332 147.043 103.163L144.744 102.712C131.158 102.721 117.73 105.61 105.342 111.188C92.9541 116.766 81.887 124.906 72.8697 135.073C69.8733 133.966 66.6258 133.729 63.5013 134.389C60.3752 135.048 57.5003 136.578 55.206 138.801C52.9117 141.025 51.2913 143.851 50.5326 146.956C49.774 150.059 49.9071 153.315 50.9169 156.346C51.8336 159.035 53.4591 161.159 55.3724 162.96C50.6807 174.49 48.2616 186.817 48.2483 199.264L48.2799 201.291C34.4761 204.878 22.2494 212.942 13.514 224.222C4.77819 235.502 0.0256213 249.362 0 263.632C0 299.131 28.8677 328 64.3298 328H241.24C285.579 328 321.652 291.905 321.652 247.539C321.652 213.28 300.037 184.153 269.802 172.584ZM201.033 110.759C223.21 110.759 241.24 128.798 241.24 150.988C241.24 156.877 239.696 162.349 237.411 167.387C231.718 167.724 225.832 168.577 219.432 170.411C215.289 159.654 208.884 149.912 200.652 141.847C192.419 133.782 182.55 127.581 171.715 123.664C175.456 119.618 179.99 116.384 185.033 114.164C190.077 111.944 195.522 110.785 201.033 110.759ZM241.24 295.815H64.3298C46.5746 295.815 32.1652 281.381 32.1652 263.632C32.1652 245.883 46.5746 231.448 62.8508 231.352L85.7203 231.608L81.7323 212.266C79.8174 202.909 80.007 193.242 82.2847 183.965C84.5623 174.689 88.873 166.036 94.9023 158.632C100.933 151.227 108.533 145.256 117.153 141.151C125.773 137.047 135.198 134.91 144.744 134.896L145.854 134.671C160.631 135.019 174.841 140.436 186.104 150.016C197.367 159.594 204.999 172.755 207.722 187.291L208.335 190.284C209.286 193.587 211.284 196.49 214.028 198.556C216.773 200.622 220.114 201.741 223.548 201.742L228.196 201.373C233.214 199.924 237.347 199.264 241.24 199.264C267.839 199.264 289.487 220.924 289.487 247.539C289.487 274.156 267.839 295.815 241.24 295.815Z" fill="url(#paint0_linear_8_4)"/>
<defs>
<linearGradient id="paint0_linear_8_4" x1="176" y1="0" x2="176" y2="328" gradientUnits="userSpaceOnUse">
<stop stop-color="#51BC90"/>
<stop offset="1" stop-color="#00A7CC"/>
</linearGradient>
</defs>
</svg>
