<svg width="627" height="198" viewBox="0 0 627 198" fill="none" xmlns="http://www.w3.org/2000/svg">
<path d="M212 119.736H224.864L230.336 149.88H230.72L239.36 119.736H250.88L258.848 149.88H259.232L265.28 119.736H278.144L265.76 167.544H253.952L245.12 135.288H244.736L235.328 167.544H223.52L212 119.736ZM283.88 157.752V129.72L293.768 119.736H320.744L330.728 129.72V147.864H296.552V154.008L299.624 157.176H315.272L318.152 154.2V151.704H330.632V157.944L321.128 167.544H293.576L283.88 157.752ZM318.056 139.032V133.464L314.792 130.104H299.816L296.552 133.464V139.032H318.056ZM339.369 158.712V147.768L348.201 138.936H372.489V132.888L369.513 129.912H355.113L352.233 132.888V135.576H339.753V130.104L350.025 119.736H374.697L384.969 130.104V167.544H373.545V160.728L366.441 167.544H348.201L339.369 158.712ZM365.577 157.752L372.489 151.128V147.96H354.441L351.849 150.552V155.352L354.249 157.752H365.577ZM399.41 157.752V130.392H390.77V119.736H399.602V104.184H412.082V119.736H426.674V130.488H412.082V153.624L415.346 156.792H426.674V167.544H409.298L399.41 157.752ZM434.84 99H447.512V127.128L454.904 119.736H470.168L480.824 130.392V167.544H468.152V133.848L464.888 130.488H456.632L447.512 139.704V167.544H434.84V99ZM491.84 119.736H503.552V127.704L511.232 119.736H524.864V130.488H513.824L504.512 140.088V167.544H491.84V119.736ZM531.602 99H544.274V167.544H531.602V99ZM601.655 119.736V178.488L591.287 188.76H566.135L557.207 179.928V173.4H569.879V176.28L571.703 178.2H585.719L588.983 174.84V160.44L581.879 167.544H566.039L555.767 157.176V119.736H568.439V153.432L571.703 156.792H580.055L588.983 147.288V119.736H601.655ZM611.233 163.416V157.272L615.361 153.144H622.369L626.401 157.368V163.32L622.369 167.544H615.361L611.233 163.416Z" fill="url(#paint0_linear_4_43)"/>
<path d="M131.167 14L121.5 43L111.833 14C111.329 12.4708 111.194 10.8438 111.441 9.25262C111.688 7.66142 112.308 6.15142 113.252 4.84672C114.195 3.54192 115.435 2.47952 116.869 1.74692C118.303 1.01432 119.89 0.632324 121.5 0.632324C123.11 0.632324 124.697 1.01432 126.131 1.74692C127.565 2.47952 128.805 3.54192 129.748 4.84672C130.692 6.15142 131.312 7.66142 131.559 9.25262C131.806 10.8438 131.671 12.4708 131.167 14ZM183.019 43.4833L155.672 57.1617L169.35 29.8147C170.616 27.4971 172.731 25.7609 175.251 24.9714C177.771 24.1819 180.499 24.4006 182.861 25.5816C185.223 26.7626 187.035 28.8137 187.915 31.3034C188.796 33.793 188.676 36.5271 187.581 38.9303C186.596 40.9034 184.994 42.5017 183.019 43.4833ZM198.833 101L169.833 91.333L198.833 81.6667C200.365 81.1566 201.996 81.0177 203.591 81.2615C205.187 81.5052 206.702 82.1246 208.011 83.0686C209.321 84.0126 210.387 85.254 211.122 86.691C211.858 88.128 212.241 89.719 212.241 91.333C212.241 92.948 211.858 94.539 211.122 95.976C210.387 97.412 209.321 98.654 208.011 99.598C206.702 100.542 205.187 101.161 203.591 101.405C201.996 101.649 200.365 101.51 198.833 101ZM73.65 29.8147L87.328 57.1617L59.981 43.4833C58.531 42.7639 57.274 41.7096 56.312 40.4078C55.35 39.106 54.712 37.594 54.45 35.9967C54.189 34.3995 54.311 32.7629 54.807 31.2222C55.303 29.6816 56.159 28.2811 57.303 27.1366C58.448 25.9921 59.848 25.1365 61.389 24.6404C62.93 24.1443 64.566 24.0221 66.163 24.2838C67.761 24.5454 69.273 25.1835 70.574 26.1453C71.876 27.107 72.931 28.3648 73.65 29.8147ZM162.835 104.306C164.178 100.207 165 95.886 165 91.333C165 67.3503 145.483 47.8333 121.5 47.8333C108.547 47.8333 96.976 53.5753 89.049 62.604L87.667 62.3333C79.501 62.3387 71.43 64.0739 63.984 67.4246C56.538 70.7753 49.886 75.6654 44.466 81.773C42.665 81.108 40.713 80.9655 38.835 81.3616C36.956 81.7578 35.228 82.6766 33.849 84.0122C32.47 85.348 31.496 87.046 31.04 88.911C30.584 90.775 30.664 92.731 31.271 94.552C31.822 96.167 32.799 97.443 33.949 98.525C31.129 105.451 29.675 112.856 29.667 120.333L29.686 121.551C21.389 123.706 14.04 128.55 8.7895 135.326C3.5387 142.102 0.682102 150.428 0.666702 159C0.666702 180.325 18.018 197.667 39.333 197.667H145.667C172.318 197.667 194 175.984 194 149.333C194 128.753 181.008 111.256 162.835 104.306ZM121.5 67.1667C134.83 67.1667 145.667 78.003 145.667 91.333C145.667 94.871 144.739 98.158 143.366 101.184C139.944 101.387 136.406 101.899 132.559 103.001C130.069 96.539 126.219 90.687 121.271 85.842C116.323 80.9971 110.391 77.2721 103.878 74.9193C106.127 72.4885 108.852 70.546 111.883 69.2124C114.915 67.8788 118.188 67.1824 121.5 67.1667ZM145.667 178.333H39.333C28.661 178.333 20 169.662 20 159C20 148.338 28.661 139.667 38.444 139.609L52.19 139.763L49.793 128.144C48.642 122.523 48.756 116.716 50.125 111.143C51.494 105.571 54.085 100.373 57.709 95.925C61.334 91.477 65.902 87.89 71.083 85.424C76.264 82.9583 81.929 81.6748 87.667 81.6667L88.334 81.5313C97.216 81.7403 105.757 84.9944 112.527 90.749C119.297 96.503 123.884 104.409 125.521 113.141L125.889 114.939C126.461 116.923 127.662 118.667 129.311 119.908C130.961 121.149 132.969 121.821 135.033 121.822L137.827 121.6C140.843 120.73 143.327 120.333 145.667 120.333C161.655 120.333 174.667 133.345 174.667 149.333C174.667 165.322 161.655 178.333 145.667 178.333Z" fill="url(#paint1_linear_4_43)"/>
<defs>
<linearGradient id="paint0_linear_4_43" x1="204.174" y1="97.044" x2="636.174" y2="97.044" gradientUnits="userSpaceOnUse">
<stop stop-color="#51BC90"/>
<stop offset="1" stop-color="#00A7CC"/>
</linearGradient>
<linearGradient id="paint1_linear_4_43" x1="106.454" y1="0.632324" x2="106.454" y2="197.667" gradientUnits="userSpaceOnUse">
<stop stop-color="#51BC90"/>
<stop offset="1" stop-color="#00A7CC"/>
</linearGradient>
</defs>
</svg>
