<svg width="659" height="198" viewBox="0 0 659 198" fill="none" xmlns="http://www.w3.org/2000/svg">
<path d="M244 119.736H256.864L262.336 149.88H262.72L271.36 119.736H282.88L290.848 149.88H291.232L297.28 119.736H310.144L297.76 167.544H285.952L277.12 135.288H276.736L267.328 167.544H255.52L244 119.736ZM315.88 157.752V129.72L325.768 119.736H352.744L362.728 129.72V147.864H328.552V154.008L331.624 157.176H347.272L350.152 154.2V151.704H362.632V157.944L353.128 167.544H325.576L315.88 157.752ZM350.056 139.032V133.464L346.792 130.104H331.816L328.552 133.464V139.032H350.056ZM371.369 158.712V147.768L380.201 138.936H404.489V132.888L401.513 129.912H387.113L384.233 132.888V135.576H371.753V130.104L382.025 119.736H406.697L416.969 130.104V167.544H405.545V160.728L398.441 167.544H380.201L371.369 158.712ZM397.577 157.752L404.489 151.128V147.96H386.441L383.849 150.552V155.352L386.249 157.752H397.577ZM431.41 157.752V130.392H422.77V119.736H431.602V104.184H444.082V119.736H458.674V130.488H444.082V153.624L447.346 156.792H458.674V167.544H441.298L431.41 157.752ZM466.84 99H479.512V127.128L486.904 119.736H502.168L512.824 130.392V167.544H500.152V133.848L496.888 130.488H488.632L479.512 139.704V167.544H466.84V99ZM523.84 119.736H535.552V127.704L543.232 119.736H556.864V130.488H545.824L536.512 140.088V167.544H523.84V119.736ZM563.602 99H576.274V167.544H563.602V99ZM633.655 119.736V178.488L623.287 188.76H598.135L589.207 179.928V173.4H601.879V176.28L603.703 178.2H617.719L620.983 174.84V160.44L613.879 167.544H598.039L587.767 157.176V119.736H600.439V153.432L603.703 156.792H612.055L620.983 147.288V119.736H633.655ZM643.233 163.416V157.272L647.361 153.144H654.369L658.401 157.368V163.32L654.369 167.544H647.361L643.233 163.416Z" fill="url(#paint0_linear_4_43)"/>
<path d="M130.5 13.3677L120.833 42.3677L111.166 13.3677C110.662 11.8385 110.527 10.2115 110.774 8.6203C111.021 7.0291 111.641 5.5191 112.585 4.2144C113.528 2.9096 114.768 1.8472 116.202 1.1146C117.636 0.382 119.223 0 120.833 0C122.443 0 124.03 0.382 125.464 1.1146C126.898 1.8472 128.138 2.9096 129.081 4.2144C130.025 5.5191 130.645 7.0291 130.892 8.6203C131.139 10.2115 131.004 11.8385 130.5 13.3677ZM182.352 42.851L155.005 56.5294L168.683 29.1824C169.949 26.8648 172.064 25.1286 174.584 24.3391C177.104 23.5496 179.832 23.7683 182.194 24.9493C184.556 26.1303 186.368 28.1814 187.248 30.6711C188.129 33.1607 188.009 35.8948 186.914 38.298C185.929 40.2711 184.327 41.8694 182.352 42.851ZM198.166 100.368L169.166 90.7007L198.166 81.0344C199.698 80.5243 201.329 80.3854 202.924 80.6292C204.52 80.8729 206.035 81.4923 207.344 82.4363C208.654 83.3803 209.72 84.6217 210.455 86.0587C211.191 87.4957 211.574 89.0867 211.574 90.7007C211.574 92.3157 211.191 93.9067 210.455 95.3437C209.72 96.7797 208.654 98.0217 207.344 98.9657C206.035 99.9097 204.52 100.529 202.924 100.773C201.329 101.017 199.698 100.878 198.166 100.368ZM72.9833 29.1824L86.6613 56.5294L59.3143 42.851C57.8643 42.1316 56.6073 41.0773 55.6453 39.7755C54.6833 38.4737 54.0453 36.9617 53.7833 35.3644C53.5223 33.7672 53.6443 32.1306 54.1403 30.5899C54.6363 29.0493 55.4923 27.6488 56.6363 26.5043C57.7813 25.3598 59.1813 24.5042 60.7223 24.0081C62.2633 23.512 63.8993 23.3898 65.4963 23.6515C67.0943 23.9131 68.6063 24.5512 69.9073 25.513C71.2093 26.4747 72.2643 27.7325 72.9833 29.1824ZM162.168 103.674C163.511 99.5747 164.333 95.2537 164.333 90.7007C164.333 66.718 144.816 47.201 120.833 47.201C107.88 47.201 96.3093 52.943 88.3823 61.9717L87.0003 61.701C78.8343 61.7064 70.7633 63.4416 63.3173 66.7923C55.8713 70.143 49.2193 75.0331 43.7993 81.1407C41.9983 80.4757 40.0463 80.3332 38.1683 80.7293C36.2893 81.1255 34.5613 82.0443 33.1823 83.3799C31.8033 84.7157 30.8293 86.4137 30.3733 88.2787C29.9173 90.1427 29.9973 92.0987 30.6043 93.9197C31.1553 95.5347 32.1323 96.8107 33.2823 97.8927C30.4623 104.819 29.0083 112.224 29.0003 119.701L29.0193 120.919C20.7223 123.074 13.3733 127.918 8.1228 134.694C2.87199 141.47 0.0154 149.796 0 158.368C0 179.693 17.3513 197.035 38.6663 197.035H145C171.651 197.035 193.333 175.352 193.333 148.701C193.333 128.121 180.341 110.624 162.168 103.674ZM120.833 66.5344C134.163 66.5344 145 77.3707 145 90.7007C145 94.2387 144.072 97.5257 142.699 100.552C139.277 100.755 135.739 101.267 131.892 102.369C129.402 95.9067 125.552 90.0547 120.604 85.2097C115.656 80.3648 109.724 76.6398 103.211 74.287C105.46 71.8562 108.185 69.9137 111.216 68.5801C114.248 67.2465 117.521 66.5501 120.833 66.5344ZM145 177.701H38.6663C27.9943 177.701 19.3333 169.03 19.3333 158.368C19.3333 147.706 27.9943 139.035 37.7773 138.977L51.5233 139.131L49.1263 127.512C47.9753 121.891 48.0893 116.084 49.4583 110.511C50.8273 104.939 53.4183 99.7407 57.0423 95.2927C60.6673 90.8447 65.2353 87.2577 70.4163 84.7917C75.5973 82.326 81.2623 81.0425 87.0003 81.0344L87.6673 80.899C96.5493 81.108 105.09 84.3621 111.86 90.1167C118.63 95.8707 123.217 103.777 124.854 112.509L125.222 114.307C125.794 116.291 126.995 118.035 128.644 119.276C130.294 120.517 132.302 121.189 134.366 121.19L137.16 120.968C140.176 120.098 142.66 119.701 145 119.701C160.988 119.701 174 132.713 174 148.701C174 164.69 160.988 177.701 145 177.701Z" fill="url(#paint1_linear_4_43)"/>
<defs>
<linearGradient id="paint0_linear_4_43" x1="236.174" y1="97.044" x2="668.174" y2="97.044" gradientUnits="userSpaceOnUse">
<stop stop-color="#51BC90"/>
<stop offset="1" stop-color="#00A7CC"/>
</linearGradient>
<linearGradient id="paint1_linear_4_43" x1="105.787" y1="0" x2="105.787" y2="197.035" gradientUnits="userSpaceOnUse">
<stop stop-color="#51BC90"/>
<stop offset="1" stop-color="#00A7CC"/>
</linearGradient>
</defs>
</svg>
