<?xml version="1.0" encoding="iso-8859-1"?>
<!-- Uploaded to: SVG Repo, www.svgrepo.com, Generator: SVG Repo Mixer Tools -->
<svg height="800px" width="800px" version="1.1" id="Layer_1" xmlns="http://www.w3.org/2000/svg" xmlns:xlink="http://www.w3.org/1999/xlink" 
	 viewBox="0 0 512 512" xml:space="preserve">
<g>
	<path style="fill:#D21E1E;" d="M284.604,187.772c19.207,8.475,40.816,16.095,65.079,22.21
		c17.221-20.875,28.959-47.494,32.663-76.977C350.301,164.799,312.857,180.264,284.604,187.772z"/>
	<path style="fill:#D21E1E;" d="M181.343,117.035c14.781,15.408,35.483,33.302,63.299,50.051
		c17.776-1.624,91.681-12.132,137.233-75.845c-3.649-21.119-13.034-35.579-27.631-45.286c1.897,6.065,2.716,12.544,2.292,19.331
		c-2.027,32.428-36.251,49.719-69.268,52.471c-9.505,0.792-18.351,1.186-26.523,1.186c-29.979,0.002-50.917-5.321-62.411-15.898
		c-6.706-6.17-10.25-14.106-10.25-22.951c0-9.183,3.701-17.272,10.704-23.389c21.581-18.856,71.271-13.231,81.013-11.913
		c7.524,1.019,12.795,7.943,11.776,15.465c-1.021,7.524-7.946,12.781-15.465,11.776c-18.576-2.491-50.241-2.502-59.244,5.376
		c-1.117,0.976-1.297,1.593-1.297,2.684c0,0.826,0.101,1.55,1.375,2.722c6.074,5.587,27.535,10.922,68.038,7.544
		c11.865-0.988,42.922-7.728,44.114-26.791c1.344-21.518-21.581-33.259-44.944-35.369c-8.843-0.495-18.214-0.708-28.102-0.708
		c-30.292,0-68.275,1.756-93.332,15.456c-9.025,4.934-16.166,11.302-21.559,19.255C147.154,73.718,159.614,94.383,181.343,117.035z"
		/>
	<path style="fill:#D21E1E;" d="M256.052,256c26.018,0,50.226-8.795,70.424-23.848c-83.487-24.332-136.005-65.565-166.098-97.266
		c-13.298-14.01-23.413-27.306-30.926-38.601c-0.632,5.215-0.971,10.75-0.971,16.681C128.482,191.835,185.711,256,256.052,256z"/>
</g>
<path style="fill:#A5B900;" d="M425.175,350.071c-11.986-4.125-33.713-10.309-56.267-10.309c-16.779,0-31.052,3.416-42.426,10.152
	c-32.321,19.145-43.73,65.904-47.284,86.61c11.991,4.124,33.706,10.3,56.246,10.3c16.779,0,31.052-3.416,42.426-10.152
	C410.333,417.447,421.664,370.75,425.175,350.071z"/>
<path d="M445.829,328.534c-1.503-0.665-37.294-16.262-76.922-16.262c-21.775,0-41.049,4.708-56.722,13.991
	c-19.812,11.735-32.651,30.229-42.96,49.131v-92.583c79.034-7.677,141.601-80.913,141.601-169.845
	c0-44.855-16.19-76.53-48.399-94.141C332.088,2.237,291.628,0,255.98,0s-76.142,2.237-106.482,18.825
	c-32.21,17.611-48.81,49.286-48.81,94.141c0,88.933,62.014,162.17,141.047,169.845v92.579
	c-8.591-18.903-22.576-37.397-42.388-49.131c-15.673-9.283-34.519-13.996-56.293-13.996c-39.627,0-75.346,15.59-76.85,16.255
	c-5.374,2.369-8.61,7.881-8.108,13.735c0.301,3.495,7.989,85.958,62.112,118.011c15.669,9.283,34.675,13.934,56.452,13.934
	c0.005,0,0.007,0,0.01,0c26.761,0,51.32-7.086,65.065-11.893v35.95c0,7.591,6.154,13.745,13.745,13.745s13.745-6.154,13.745-13.745
	v-35.876c13.745,4.824,39.166,11.936,65.931,11.936c21.775,0,40.907-4.708,56.579-13.991
	c54.123-32.055,61.864-114.547,62.165-118.042C454.404,336.429,451.203,330.905,445.829,328.534z M335.443,446.825
	c-22.54,0-44.257-6.177-56.246-10.3c3.555-20.707,14.965-67.467,47.284-86.61c11.374-6.737,25.648-10.152,42.426-10.152
	c22.554,0,44.281,6.184,56.267,10.309c-3.512,20.679-14.843,67.376-47.305,86.602C366.495,443.409,352.222,446.825,335.443,446.825z
	 M162.72,42.946c25.057-13.7,63.04-15.456,93.332-15.456c9.888,0,19.258,0.213,28.102,0.713
	c23.363,2.11,46.288,13.851,44.944,35.369c-1.191,19.063-32.249,25.803-44.114,26.791c-40.501,3.38-61.962-1.957-68.038-7.544
	c-1.273-1.172-1.375-1.895-1.375-2.722c0-1.093,0.179-1.708,1.297-2.684c9.001-7.878,40.668-7.867,59.244-5.376
	c7.519,1.005,14.444-4.254,15.465-11.776c1.019-7.522-4.254-14.446-11.776-15.465c-9.742-1.32-59.432-6.943-81.013,11.913
	c-7.003,6.117-10.704,14.205-10.704,23.389c0,8.845,3.543,16.781,10.25,22.951c11.494,10.577,32.431,15.899,62.411,15.898
	c8.171,0,17.016-0.393,26.523-1.186c33.019-2.752,67.242-20.044,69.268-52.471c0.424-6.787-0.395-13.266-2.292-19.331
	c14.597,9.706,23.982,24.167,27.631,45.286c-45.553,63.713-119.458,74.219-137.233,75.845
	c-27.815-16.748-48.518-34.642-63.299-50.051c-21.729-22.657-34.189-43.322-40.182-54.839
	C146.555,54.248,153.695,47.881,162.72,42.946z M240.73,167.369L240.73,167.369L240.73,167.369z M349.683,209.982
	c-24.263-6.115-45.872-13.735-65.079-22.21c28.251-7.508,65.696-22.973,97.742-54.767
	C378.642,162.488,366.904,189.105,349.683,209.982z M129.452,96.285c7.513,11.295,17.628,24.59,30.926,38.601
	c30.093,31.701,82.611,72.934,166.098,97.266C306.278,247.205,282.068,256,256.052,256c-70.342,0-127.57-64.165-127.57-143.034
	C128.482,107.035,128.82,101.5,129.452,96.285z M176.663,446.711c-16.783,0-31.055-3.361-42.427-10.097
	c-32.321-19.143-43.73-65.856-47.286-86.55c11.998-4.127,33.71-10.316,56.246-10.316c16.779,0,31.053,3.402,42.426,10.137
	c32.321,19.145,43.731,65.887,47.284,86.583c-11.992,4.127-33.703,10.243-56.238,10.243
	C176.668,446.711,176.665,446.711,176.663,446.711z"/>
<path style="fill:#A5B900;" d="M185.623,349.887c-11.372-6.737-25.648-10.137-42.426-10.137c-22.537,0-44.25,6.189-56.246,10.316
	c3.555,20.695,14.963,67.407,47.286,86.55c11.372,6.737,25.646,10.097,42.427,10.097c0.002,0,0.005,0,0.007,0
	c22.535,0,44.245-6.116,56.238-10.243C229.354,415.771,217.944,369.03,185.623,349.887z"/>
</svg>